<svg width="38" height="40" viewBox="0 0 38 40" fill="none" xmlns="http://www.w3.org/2000/svg">
<path d="M36.4062 22.4219C36.7188 24.2188 36.4844 25.9375 35.7031 27.3438C35.9375 29.2188 35.3906 31.1719 34.2969 32.5781C34.2188 36.9531 31.5625 40 25.5469 40C25 40 24.375 40 23.75 40C15.7812 40 13.3594 37.0312 9.84375 36.9531C9.60938 37.9688 8.59375 38.75 7.5 38.75H2.5C1.09375 38.75 0 37.6562 0 36.25V17.5C0 16.1719 1.09375 15 2.5 15H10.1562C11.6406 13.75 13.75 10.3125 15.5469 8.51562C16.6406 7.42188 16.3281 0 21.1719 0C25.625 0 28.5938 2.5 28.5938 8.20312C28.5938 9.6875 28.2812 10.8594 27.8906 11.875H30.7812C34.5312 11.875 37.5 15.0781 37.5 18.5156C37.5 20 37.1094 21.25 36.4062 22.4219ZM31.5625 26.6406C33.2812 25.0781 33.0469 22.6562 31.9531 21.4844C32.7344 21.4844 33.75 20 33.75 18.5938C33.6719 17.1094 32.4219 15.625 30.7812 15.625H22.6562C22.6562 12.6562 24.8438 11.25 24.8438 8.20312C24.8438 6.32812 24.8438 3.75 21.1719 3.75C19.6875 5.23438 20.3906 8.98438 18.2031 11.1719C16.0938 13.2812 13.0469 18.75 10.7812 18.75H10V33.3594C14.1406 33.3594 17.8125 36.25 23.3594 36.25H26.3281C29.0625 36.25 31.0938 34.9219 30.4688 31.1719C31.6406 30.4688 32.5781 28.2812 31.5625 26.6406ZM6.875 33.75C6.875 32.7344 6.01562 31.875 5 31.875C3.90625 31.875 3.125 32.7344 3.125 33.75C3.125 34.8438 3.90625 35.625 5 35.625C6.01562 35.625 6.875 34.8438 6.875 33.75Z" fill="#7E57C2"/>
</svg>
